<svg width="22" height="22" viewBox="0 0 22 22" fill="none" xmlns="http://www.w3.org/2000/svg">
<path d="M17.9736 17.5942C17.61 16.8819 17.1302 16.2136 16.5341 15.6175C13.4777 12.5611 8.52214 12.5611 5.46567 15.6175C4.8696 16.2136 4.38978 16.8819 4.0262 17.5942M0.916504 11C0.916504 5.43115 5.43097 0.916687 10.9998 0.916687C16.5687 0.916687 21.0832 5.43115 21.0832 11C21.0832 16.5689 16.5687 21.0834 10.9998 21.0834C5.43097 21.0834 0.916503 16.5689 0.916504 11ZM14.6665 9.16669C14.6665 11.1917 13.0249 12.8334 10.9998 12.8334C8.97479 12.8334 7.33317 11.1917 7.33317 9.16669C7.33317 7.14164 8.97479 5.50002 10.9998 5.50002C13.0249 5.50002 14.6665 7.14164 14.6665 9.16669Z" stroke="#A5ACBA" stroke-width="1.67"/>
</svg>
