<svg width="22" height="23" viewBox="0 0 22 23" fill="none" xmlns="http://www.w3.org/2000/svg">
<path d="M8.24984 1.15668L13.7498 1.15668C16.3167 1.15668 17.6002 1.15668 18.5806 1.65623C19.443 2.09565 20.1442 2.79681 20.5836 3.65922C21.0832 4.63965 21.0832 5.9231 21.0832 8.49001V13.99C21.0832 16.5569 21.0832 17.8404 20.5836 18.8208C20.1442 19.6832 19.443 20.3844 18.5806 20.8238C17.6002 21.3233 16.3167 21.3233 13.7498 21.3233H8.24984M8.24984 1.15668C5.68293 1.15668 4.39948 1.15668 3.41905 1.65623C2.55664 2.09565 1.85548 2.79681 1.41606 3.65922C0.916504 4.63965 0.916504 5.9231 0.916504 8.49001L0.916504 13.99C0.916504 16.5569 0.916504 17.8404 1.41606 18.8208C1.85548 19.6832 2.55664 20.3844 3.41905 20.8238C4.39948 21.3233 5.68293 21.3233 8.24984 21.3233M8.24984 1.15668L8.24984 21.3233M8.24984 11.24L21.9998 11.24" stroke="#A5ACBA" stroke-width="1.67" stroke-linecap="round"/>
</svg>
