<svg width="20" height="18" viewBox="0 0 20 18" fill="none" xmlns="http://www.w3.org/2000/svg">
<path d="M1.75016 2.58335L8.87461 8.12459C9.53664 8.6395 10.4637 8.6395 11.1257 8.12459L18.2502 2.58335M3.76683 16.3334H16.2335C17.2603 16.3334 17.7736 16.3334 18.1658 16.1335C18.5108 15.9578 18.7912 15.6773 18.967 15.3323C19.1668 14.9402 19.1668 14.4268 19.1668 13.4V4.60002C19.1668 3.57326 19.1668 3.05988 18.967 2.6677C18.7912 2.32274 18.5108 2.04228 18.1658 1.86651C17.7736 1.66669 17.2603 1.66669 16.2335 1.66669H3.76683C2.74007 1.66669 2.22668 1.66669 1.83451 1.86651C1.48955 2.04228 1.20909 2.32274 1.03332 2.6677C0.833496 3.05988 0.833496 3.57326 0.833496 4.60002V13.4C0.833496 14.4268 0.833496 14.9402 1.03332 15.3323C1.20909 15.6773 1.48955 15.9578 1.83451 16.1335C2.22668 16.3334 2.74007 16.3334 3.76683 16.3334Z" stroke="#A5ACBA" stroke-width="1.67"/>
</svg>
