<svg width="16" height="18" viewBox="0 0 16 18" fill="none" xmlns="http://www.w3.org/2000/svg">
<path d="M14.8781 14.5111L15.6881 14.3086L15.6881 14.3086L14.8781 14.5111ZM14.6947 13.7778L13.8847 13.9803L13.8847 13.9803L14.6947 13.7778ZM1.30594 13.7778L0.495868 13.5752L1.30594 13.7778ZM1.1226 14.5111L1.93267 14.7136L1.1226 14.5111ZM1.94432 12.7384L1.62089 11.9685H1.62089L1.94432 12.7384ZM1.56563 13.034L2.23401 13.5345H2.23401L1.56563 13.034ZM14.4351 13.034L13.7667 13.5345L13.7667 13.5345L14.4351 13.034ZM14.0564 12.7384L14.3798 11.9685H14.3798L14.0564 12.7384ZM14.6346 16.2008L14.202 15.4867H14.2019L14.6346 16.2008ZM15.0354 15.6875L15.8332 15.934V15.934L15.0354 15.6875ZM1.36605 16.2008L1.79873 15.4867H1.79873L1.36605 16.2008ZM0.96526 15.6875L1.76303 15.4409L1.76303 15.4409L0.96526 15.6875ZM7.34443 1.0781L6.971 0.331249V0.33125L7.34443 1.0781ZM1.97883 3.76089L2.35226 4.50774L1.97883 3.76089ZM1.32292 5.72863L0.576074 6.10206L0.576074 6.10206L1.32292 5.72863ZM1.48233 6.04745L2.22918 5.67403L2.22918 5.67403L1.48233 6.04745ZM14.5184 6.04745L13.7715 5.67403L13.7715 5.67403L14.5184 6.04745ZM14.6778 5.72863L13.9309 5.35521L13.9309 5.35521L14.6778 5.72863ZM14.0218 3.76089L14.3953 3.01405L14.0218 3.76089ZM8.65625 1.0781L9.02968 0.33125L8.65625 1.0781ZM15.0205 4.81979L15.8555 4.81345V4.81345L15.0205 4.81979ZM14.8413 4.28233L14.1695 4.77825L14.1695 4.77825L14.8413 4.28233ZM1.15936 4.28233L0.487573 3.78642L0.487573 3.78642L1.15936 4.28233ZM0.980204 4.81979L0.145228 4.81345V4.81345L0.980204 4.81979ZM14.3501 6.23761L14.0778 5.44825L14.0778 5.44825L14.3501 6.23761ZM14.4357 6.18469L15.02 6.78124L15.02 6.78123L14.4357 6.18469ZM1.65058 6.23761L1.92285 5.44825H1.92285L1.65058 6.23761ZM1.56495 6.18469L0.980687 6.78123L0.980691 6.78124L1.56495 6.18469ZM7.83131 0.874057L7.67734 0.0533755L7.83131 0.874057ZM8.16937 0.874057L8.32334 0.0533754L8.16937 0.874057ZM2.58201 11.7501C2.58201 12.2113 2.95585 12.5851 3.41701 12.5851C3.87817 12.5851 4.25201 12.2113 4.25201 11.7501H2.58201ZM4.25201 6.25014C4.25201 5.78898 3.87817 5.41514 3.41701 5.41514C2.95585 5.41514 2.58201 5.78898 2.58201 6.25014H4.25201ZM7.16534 11.7501C7.16534 12.2113 7.53918 12.5851 8.00034 12.5851C8.4615 12.5851 8.83534 12.2113 8.83534 11.7501H7.16534ZM8.83534 7.16681C8.83534 6.70565 8.4615 6.33181 8.00034 6.33181C7.53918 6.33181 7.16534 6.70565 7.16534 7.16681H8.83534ZM11.7487 11.7501C11.7487 12.2113 12.1225 12.5851 12.5837 12.5851C13.0448 12.5851 13.4187 12.2113 13.4187 11.7501H11.7487ZM13.4187 7.16681C13.4187 6.70565 13.0448 6.33181 12.5837 6.33181C12.1225 6.33181 11.7487 6.70565 11.7487 7.16681H13.4187ZM2.54548 17.1685H13.4552V15.4985H2.54548V17.1685ZM15.6881 14.3086L15.5048 13.5752L13.8847 13.9803L14.068 14.7136L15.6881 14.3086ZM13.2719 11.8318H2.72881V13.5018H13.2719V11.8318ZM0.495868 13.5752L0.312534 14.3086L1.93267 14.7136L2.11601 13.9803L0.495868 13.5752ZM2.72881 11.8318C2.3969 11.8318 1.98426 11.8159 1.62089 11.9685L2.26775 13.5082C2.23701 13.5211 2.23105 13.5141 2.30714 13.5086C2.39373 13.5023 2.51216 13.5018 2.72881 13.5018V11.8318ZM2.11601 13.9803C2.16855 13.7701 2.19776 13.6553 2.22484 13.5728C2.24864 13.5003 2.254 13.5078 2.23401 13.5345L0.897236 12.5336C0.660999 12.8491 0.576368 13.2532 0.495868 13.5752L2.11601 13.9803ZM1.62089 11.9685C1.33373 12.0892 1.08393 12.2842 0.897236 12.5336L2.23401 13.5345C2.24272 13.5229 2.25436 13.5138 2.26775 13.5082L1.62089 11.9685ZM15.5048 13.5752C15.4243 13.2532 15.3397 12.8491 15.1034 12.5336L13.7667 13.5345C13.7467 13.5078 13.752 13.5003 13.7758 13.5728C13.8029 13.6553 13.8321 13.7701 13.8847 13.9803L15.5048 13.5752ZM13.2719 13.5018C13.4885 13.5018 13.607 13.5023 13.6935 13.5086C13.7696 13.5141 13.7637 13.5211 13.7329 13.5082L14.3798 11.9685C14.0164 11.8159 13.6038 11.8318 13.2719 11.8318V13.5018ZM15.1034 12.5336C14.9168 12.2842 14.667 12.0892 14.3798 11.9685L13.7329 13.5082C13.7463 13.5138 13.758 13.5229 13.7667 13.5345L15.1034 12.5336ZM13.4552 17.1685C13.76 17.1685 14.0436 17.1692 14.2765 17.1486C14.5156 17.1275 14.7985 17.0778 15.0673 16.9149L14.2019 15.4867C14.2518 15.4564 14.2651 15.4731 14.1293 15.4851C13.9873 15.4977 13.7907 15.4985 13.4552 15.4985V17.1685ZM14.068 14.7136C14.1494 15.0391 14.1963 15.23 14.2186 15.3708C14.2399 15.5055 14.2204 15.4966 14.2377 15.4409L15.8332 15.934C15.926 15.6337 15.9056 15.3472 15.8681 15.1102C15.8316 14.8793 15.7621 14.6043 15.6881 14.3086L14.068 14.7136ZM15.0673 16.9149C15.4341 16.6927 15.7066 16.3437 15.8332 15.934L14.2377 15.4409C14.2318 15.46 14.219 15.4763 14.202 15.4867L15.0673 16.9149ZM2.54548 15.4985C2.21 15.4985 2.01338 15.4977 1.87135 15.4851C1.73554 15.4731 1.74885 15.4564 1.79873 15.4867L0.933357 16.9149C1.20221 17.0778 1.48509 17.1275 1.72418 17.1486C1.95704 17.1692 2.24065 17.1685 2.54548 17.1685V15.4985ZM0.312534 14.3086C0.238602 14.6043 0.169071 14.8793 0.13258 15.1102C0.0951144 15.3472 0.0746706 15.6337 0.167494 15.934L1.76303 15.4409C1.78025 15.4966 1.76083 15.5055 1.78211 15.3708C1.80437 15.23 1.85131 15.0391 1.93267 14.7136L0.312534 14.3086ZM1.79873 15.4867C1.78163 15.4763 1.76893 15.46 1.76303 15.4409L0.167494 15.934C0.294114 16.3437 0.566614 16.6927 0.933357 16.9149L1.79873 15.4867ZM1.81029 7.08514H14.1904V5.41514H1.81029V7.08514ZM6.971 0.33125L1.60541 3.01405L2.35226 4.50774L7.71785 1.82494L6.971 0.33125ZM0.576074 6.10206L0.735483 6.42087L2.22918 5.67403L2.06977 5.35521L0.576074 6.10206ZM15.2652 6.42087L15.4246 6.10206L13.9309 5.35521L13.7715 5.67403L15.2652 6.42087ZM14.3953 3.01405L9.02968 0.33125L8.28283 1.82494L13.6484 4.50774L14.3953 3.01405ZM15.4246 6.10206C15.5332 5.88479 15.6378 5.67721 15.7106 5.49591C15.7871 5.30553 15.8575 5.07761 15.8555 4.81345L14.1855 4.82613C14.1852 4.78204 14.1989 4.77895 14.1611 4.87318C14.1196 4.97648 14.0519 5.11329 13.9309 5.35521L15.4246 6.10206ZM13.6484 4.50774C13.8903 4.6287 14.0266 4.69754 14.1218 4.75527C14.2086 4.80794 14.1957 4.81372 14.1695 4.77825L15.5131 3.78642C15.3562 3.57389 15.1632 3.43375 14.9878 3.32736C14.8207 3.22603 14.6125 3.12268 14.3953 3.01405L13.6484 4.50774ZM15.8555 4.81345C15.8526 4.44355 15.7328 4.08403 15.5131 3.78642L14.1695 4.77825C14.1798 4.79212 14.1854 4.80889 14.1855 4.82613L15.8555 4.81345ZM1.60541 3.01405C1.38814 3.12268 1.17998 3.22603 1.01292 3.32736C0.837483 3.43375 0.644464 3.57389 0.487573 3.78642L1.83114 4.77825C1.80495 4.81372 1.79208 4.80794 1.87892 4.75527C1.97411 4.69754 2.11034 4.6287 2.35226 4.50774L1.60541 3.01405ZM2.06977 5.35521C1.94881 5.11329 1.88113 4.97648 1.83961 4.87318C1.80174 4.77895 1.81551 4.78204 1.81518 4.82613L0.145228 4.81345C0.143223 5.07761 0.213556 5.30553 0.290064 5.49591C0.362925 5.67721 0.46744 5.88479 0.576074 6.10206L2.06977 5.35521ZM0.487573 3.78642C0.267877 4.08403 0.148036 4.44355 0.145228 4.81345L1.81518 4.82613C1.81531 4.80889 1.8209 4.79212 1.83114 4.77825L0.487573 3.78642ZM14.1904 7.08514C14.2121 7.08514 14.4222 7.09603 14.6224 7.02698L14.0778 5.44825C14.1566 5.42108 14.2188 5.41623 14.2355 5.41519C14.2428 5.41474 14.2444 5.41489 14.2347 5.41501C14.2249 5.41513 14.2124 5.41514 14.1904 5.41514V7.08514ZM13.7715 5.67403C13.7617 5.69373 13.7561 5.70487 13.7516 5.71362C13.7471 5.72223 13.7477 5.72073 13.7514 5.71439C13.7598 5.69993 13.7919 5.64647 13.8515 5.58816L15.02 6.78123C15.1713 6.63304 15.2555 6.44032 15.2652 6.42087L13.7715 5.67403ZM14.6224 7.02698C14.7715 6.97554 14.9073 6.8916 15.02 6.78124L13.8515 5.58815C13.9156 5.52532 13.9929 5.47753 14.0778 5.44825L14.6224 7.02698ZM1.81029 5.41514C1.78825 5.41514 1.77579 5.41513 1.76595 5.41501C1.75626 5.41489 1.75787 5.41474 1.76518 5.41519C1.78187 5.41623 1.84407 5.42108 1.92285 5.44825L1.37831 7.02698C1.57852 7.09603 1.78856 7.08514 1.81029 7.08514V5.41514ZM0.735483 6.42087C0.745201 6.44031 0.829387 6.63304 0.980687 6.78123L2.14922 5.58816C2.20876 5.64647 2.24091 5.69994 2.2493 5.7144C2.25298 5.72073 2.25356 5.72224 2.24912 5.71362C2.24461 5.70487 2.23903 5.69373 2.22918 5.67403L0.735483 6.42087ZM1.92285 5.44825C2.00774 5.47753 2.08506 5.52532 2.14922 5.58815L0.980691 6.78124C1.09338 6.8916 1.2292 6.97554 1.37831 7.02698L1.92285 5.44825ZM7.71785 1.82494C7.84574 1.761 7.91307 1.72763 7.9639 1.70552C8.00668 1.68691 8.00536 1.69097 7.98528 1.69474L7.67734 0.0533755C7.40931 0.103661 7.16822 0.232644 6.971 0.331249L7.71785 1.82494ZM9.02968 0.33125C8.83247 0.232644 8.59137 0.103661 8.32334 0.0533754L8.0154 1.69474C7.99532 1.69097 7.994 1.68691 8.03678 1.70552C8.08761 1.72764 8.15494 1.761 8.28283 1.82494L9.02968 0.33125ZM7.98528 1.69474C7.99523 1.69287 8.00545 1.69287 8.0154 1.69474L8.32334 0.0533754C8.10987 0.0133248 7.89081 0.0133247 7.67734 0.0533755L7.98528 1.69474ZM4.25201 11.7501V6.25014H2.58201V11.7501H4.25201ZM8.83534 11.7501V7.16681H7.16534V11.7501H8.83534ZM13.4187 11.7501V7.16681H11.7487V11.7501H13.4187Z" fill="#A5ACBA"/>
</svg>
